<svg width="83" height="88" viewBox="0 0 83 88" fill="none" xmlns="http://www.w3.org/2000/svg">
<path d="M81.3607 67.3C82.5323 66.1284 82.5323 64.2289 81.3607 63.0573L62.2688 43.9655C61.0973 42.7939 59.1978 42.7939 58.0262 43.9655C56.8546 45.137 56.8546 47.0365 58.0262 48.2081L74.9968 65.1787L58.0262 82.1492C56.8546 83.3208 56.8546 85.2203 58.0262 86.3919C59.1978 87.5634 61.0973 87.5634 62.2688 86.3919L81.3607 67.3ZM6 3C6 1.34315 4.65686 6.6398e-07 3 0C1.34315 -6.63981e-07 6.6398e-07 1.34314 0 3L6 3ZM79.2394 62.1787C68.3891 62.1787 58.3875 62.1754 49.4013 61.2238C40.4229 60.273 32.7074 58.3956 26.3889 54.7991C14.1018 47.8053 5.99999 33.6202 6 3L0 3C-1.23635e-05 34.5585 8.3982 51.4627 23.4209 60.0136C30.7573 64.1894 39.3993 66.1982 48.7694 67.1904C58.1318 68.1819 68.47 68.1787 79.2394 68.1787L79.2394 62.1787Z" fill="#F8CAE0"/>
</svg>
