<svg width="18" height="19" viewBox="0 0 18 19" fill="none" xmlns="http://www.w3.org/2000/svg">
<path d="M0.15625 9.8125C0.078125 9.73438 0.0390625 9.61719 0.0390625 9.46094C0.0390625 9.34375 0.078125 9.22656 0.15625 9.14844L8.4375 0.90625C8.51562 0.828125 8.59375 0.75 8.75 0.75C8.86719 0.75 8.98438 0.828125 9.0625 0.90625L17.3438 9.14844C17.4219 9.22656 17.4609 9.34375 17.4609 9.46094C17.4609 9.61719 17.4219 9.73438 17.3438 9.8125L17.0312 10.0859C16.9531 10.1641 16.8359 10.2031 16.7188 10.2031C16.5625 10.2031 16.4453 10.1641 16.3672 10.0859L9.41406 3.09375V17.7812C9.41406 17.9375 9.33594 18.0547 9.25781 18.1328C9.17969 18.2109 9.0625 18.25 8.94531 18.25H8.55469C8.39844 18.25 8.28125 18.2109 8.20312 18.1328C8.125 18.0547 8.08594 17.9375 8.08594 17.7812V3.09375L1.13281 10.0859C1.01562 10.1641 0.898438 10.2031 0.78125 10.2031C0.625 10.2031 0.546875 10.1641 0.46875 10.0859L0.15625 9.8125Z" fill="#222038"/>
</svg>
