<svg width="10" height="10" viewBox="0 0 10 10" fill="none" xmlns="http://www.w3.org/2000/svg">
<path d="M5.78516 5.125L9.26367 8.60352C9.31445 8.67969 9.33984 8.75586 9.33984 8.83203C9.33984 8.93359 9.31445 8.98438 9.26367 9.03516L9.03516 9.26367C8.98438 9.31445 8.9082 9.33984 8.83203 9.33984C8.73047 9.33984 8.6543 9.31445 8.60352 9.26367L5.125 5.75977L1.64648 9.26367C1.57031 9.31445 1.49414 9.33984 1.41797 9.33984C1.31641 9.33984 1.26562 9.31445 1.21484 9.26367L0.986328 9.03516C0.935547 8.98438 0.910156 8.93359 0.910156 8.83203C0.910156 8.75586 0.935547 8.67969 0.986328 8.60352L4.49023 5.125L0.986328 1.64648C0.935547 1.5957 0.910156 1.51953 0.910156 1.41797C0.910156 1.3418 0.935547 1.26562 0.986328 1.21484L1.21484 0.986328C1.26562 0.935547 1.31641 0.910156 1.41797 0.910156C1.49414 0.910156 1.57031 0.935547 1.64648 0.986328L5.125 4.46484L8.60352 0.986328C8.6543 0.935547 8.73047 0.910156 8.83203 0.910156C8.9082 0.910156 8.98438 0.935547 9.03516 0.986328L9.26367 1.21484C9.31445 1.26562 9.33984 1.3418 9.33984 1.41797C9.33984 1.51953 9.31445 1.5957 9.26367 1.64648L5.78516 5.125Z" fill="black"/>
</svg>
