<svg width="12" height="10" viewBox="0 0 12 10" fill="none" xmlns="http://www.w3.org/2000/svg">
<path d="M11.8477 1.51953C11.873 1.51953 11.8984 1.51953 11.9492 1.46875C11.9746 1.44336 12 1.41797 12 1.36719V0.757812C12 0.732422 11.9746 0.707031 11.9492 0.65625C11.8984 0.630859 11.873 0.605469 11.8477 0.605469H0.777344C0.726562 0.605469 0.701172 0.630859 0.675781 0.65625C0.625 0.707031 0.625 0.732422 0.625 0.757812V1.36719C0.625 1.41797 0.625 1.44336 0.675781 1.46875C0.701172 1.51953 0.726562 1.51953 0.777344 1.51953H11.8477ZM11.8477 5.58203C11.873 5.58203 11.8984 5.58203 11.9492 5.53125C11.9746 5.50586 12 5.48047 12 5.42969V4.82031C12 4.79492 11.9746 4.76953 11.9492 4.71875C11.8984 4.69336 11.873 4.66797 11.8477 4.66797H0.777344C0.726562 4.66797 0.701172 4.69336 0.675781 4.71875C0.625 4.76953 0.625 4.79492 0.625 4.82031V5.42969C0.625 5.48047 0.625 5.50586 0.675781 5.53125C0.701172 5.58203 0.726562 5.58203 0.777344 5.58203H11.8477ZM11.8477 9.64453C11.873 9.64453 11.8984 9.64453 11.9492 9.59375C11.9746 9.56836 12 9.54297 12 9.49219V8.88281C12 8.85742 11.9746 8.83203 11.9492 8.78125C11.8984 8.75586 11.873 8.73047 11.8477 8.73047H0.777344C0.726562 8.73047 0.701172 8.75586 0.675781 8.78125C0.625 8.83203 0.625 8.85742 0.625 8.88281V9.49219C0.625 9.54297 0.625 9.56836 0.675781 9.59375C0.701172 9.64453 0.726562 9.64453 0.777344 9.64453H11.8477Z" fill="black"/>
</svg>
