<svg width="146" height="50" viewBox="0 0 146 50" fill="none" xmlns="http://www.w3.org/2000/svg">
<path d="M14.443 0.312515C15.6989 0.312515 16.9548 0.625015 17.8967 0.937515C18.8387 1.56252 19.4666 2.18752 20.0946 2.81252C20.7225 3.43752 20.7225 4.37502 20.7225 5.31252C20.7225 6.87502 20.4086 7.81252 19.4666 8.75002C18.8387 9.68752 17.8967 10.3125 16.6408 10.3125V10.9375C18.2107 10.9375 19.4666 11.5625 20.4086 12.5C21.3505 13.4375 21.9785 14.6875 21.9785 16.25C21.9785 18.125 21.3505 19.6875 20.0946 20.625C18.8387 21.5625 17.2688 22.1875 14.7569 22.1875H0.941895V0.312515H14.443ZM13.1871 8.43752C13.501 8.12502 13.815 7.81252 13.815 7.18752C13.815 6.56252 13.501 6.25002 13.1871 5.93752C12.8731 5.62502 12.2451 5.62502 11.6172 5.62502H8.1634V9.06252H11.6172C12.2451 9.06252 12.8731 8.75002 13.1871 8.43752ZM13.815 16.5625C14.129 16.25 14.443 15.625 14.443 15C14.443 14.375 14.129 14.0625 13.815 13.4375C13.501 13.4375 12.8731 13.125 12.2451 13.125H8.1634V16.875H12.2451C12.8731 16.875 13.501 16.875 13.815 16.5625Z" fill="#222038"/>
<path d="M41.7591 1.5625C43.643 2.5 44.8989 4.0625 45.8408 5.625C46.4688 7.5 47.0967 9.375 47.0967 11.25C47.0967 13.125 46.7827 15 45.8408 16.875C44.8989 18.75 43.643 20 41.7591 20.9375C39.8752 21.875 37.9914 22.5 35.4795 22.5C32.9677 22.5 30.7698 21.875 29.2 20.9375C27.3161 20 25.7462 18.4375 25.1182 16.875C24.1763 15 23.5483 13.125 23.5483 11.25C23.5483 9.375 24.1763 7.5 25.1182 5.625C26.0602 4.0625 27.3161 2.5 29.2 1.5625C31.0838 0.625 32.9677 0 35.4795 0C37.9914 0 39.8752 0.625 41.7591 1.5625ZM38.6193 15.625C39.2473 14.6875 39.8752 13.125 39.8752 11.25C39.8752 9.375 39.5612 7.8125 38.6193 6.875C37.9914 5.9375 36.7354 5.3125 35.4795 5.3125C33.9096 5.3125 32.9677 5.9375 32.3397 6.875C31.3978 7.8125 31.0838 9.375 31.0838 11.25C31.0838 13.125 31.3978 14.6875 32.0258 15.625C32.6537 16.5625 33.9096 17.1875 35.1655 17.1875C36.7354 17.1875 37.9914 16.875 38.6193 15.625Z" fill="#222038"/>
<path d="M62.7957 18.75H55.5742L54.3183 22.1875H47.0968L55.2602 0.312515H63.4237L71.5871 22.1875H64.0516L62.7957 18.75ZM61.5398 14.375L60.2839 9.37502C59.9699 8.43752 59.6559 7.18752 59.6559 6.25002H59.028C58.714 7.18752 58.714 8.43752 58.4 9.37502L57.1441 14.375H61.5398Z" fill="#222038"/>
<path d="M86.0301 0.312515C88.2279 0.312515 90.1118 0.937515 91.6817 1.87502C93.2516 2.81252 93.8795 4.37502 93.8795 6.25002C93.8795 7.18752 93.5656 8.12502 93.2516 9.06252C92.9376 9.68752 92.3097 10.3125 91.6817 10.9375C91.0537 11.25 90.1118 11.5625 89.4838 11.5625V12.1875C90.7398 12.1875 91.9957 12.5 92.6236 13.4375C93.5656 14.0625 93.8795 15.3125 93.8795 16.875C93.8795 17.8125 93.8795 18.75 94.1935 19.6875C94.5075 20.625 94.8215 21.25 95.1355 21.875V22.1875H88.2279C87.6 20.9375 87.286 19.375 87.286 17.5C87.286 16.5625 86.972 15.9375 86.3441 15.3125C85.7161 14.6875 84.7742 14.6875 83.5182 14.6875H80.6924V22.1875H73.7849V0.312515H86.0301ZM86.0301 9.37502C86.3441 9.06252 86.658 8.43752 86.658 7.81252C86.658 7.18752 86.3441 6.56252 86.0301 6.25002C85.7161 5.93752 85.0881 5.62502 84.4602 5.62502H80.3785V10H84.4602C85.0881 10 85.4021 9.68752 86.0301 9.37502Z" fill="#222038"/>
<path d="M107.381 0.312515C109.893 0.312515 111.776 0.625015 113.66 1.56252C115.544 2.50002 116.8 3.75002 117.742 5.31252C118.998 7.18752 119.312 9.06252 119.312 11.25C119.312 13.4375 118.684 15.3125 117.742 17.1875C116.8 18.75 115.23 20 113.66 20.9375C111.776 21.875 109.893 22.1875 107.381 22.1875H97.3334V0.312515H107.381ZM110.834 15.3125C111.776 14.375 112.09 12.8125 112.09 11.25C112.09 9.37502 111.776 8.12502 110.834 7.18752C110.206 6.25002 108.951 5.93752 107.067 5.93752H104.241V16.875H107.067C108.637 16.875 109.893 16.25 110.834 15.3125Z" fill="#222038"/>
<path d="M5.96559 31.25V34.375H10.3613V35.625H5.96559V46.875C6.90753 47.1875 8.16344 47.8125 9.10538 48.125V49.0625H0V48.125C0.941936 47.5 2.19785 47.1875 3.13979 46.875V35.625H0.627957V34.375H3.13979V32.5C3.13979 30 4.70968 27.8125 7.53548 27.8125C9.10538 27.5 9.41935 28.125 11.3032 27.8125V32.5H9.73333C9.73333 31.5625 9.41936 29.375 7.84946 29.375C6.90753 29.375 5.96559 30 5.96559 31.25Z" fill="#222038"/>
<path d="M11.6172 41.875C11.6172 37.5 15.071 34.0625 19.1527 34.0625C23.2344 34.0625 26.6882 37.5 26.6882 41.875C26.6882 46.25 23.2344 49.6875 19.1527 49.6875C15.071 49.6875 11.6172 46.25 11.6172 41.875ZM19.4667 48.125C22.2925 48.125 23.5484 45.3125 23.5484 42.5C23.5484 39.0625 21.9785 35.625 19.1527 35.625C16.3269 35.625 15.071 38.4375 15.071 41.25C15.071 44.6875 16.6408 48.125 19.4667 48.125Z" fill="#222038"/>
<path d="M40.1892 34.375V38.4375H39.8753C37.9914 38.4375 37.6774 36.875 36.1075 36.875C34.8516 36.875 34.2236 38.4375 33.9097 40.625V47.1875C34.8516 47.8125 35.7935 48.125 37.0495 48.4375V49.375H28.2581V48.4375C29.2 48.125 30.1419 47.5 31.0839 46.875V36.5625C30.1419 36.25 29.2 35.625 28.2581 35.3125V34.375H33.5957L32.9677 37.1875L33.9097 37.5C34.5376 35.625 35.7935 34.0625 37.9914 34.0625C38.6193 34.0625 39.2473 34.375 40.1892 34.375Z" fill="#222038"/>
<path d="M69.7033 49.375H63.1097C63.1097 48.4375 63.4237 47.5 64.0516 46.5625L63.4237 46.25C63.1097 46.875 62.7957 47.1875 62.1678 47.8125C61.5398 48.4375 60.9119 48.75 59.9699 49.375C59.028 49.6875 58.0861 50 57.1441 50C55.2602 50 53.3764 49.6875 51.8065 48.75C50.2366 47.8125 49.2946 46.5625 48.3527 44.6875C47.4108 43.125 47.0968 40.9375 47.0968 38.75C47.0968 36.5625 47.7248 34.375 48.6667 32.8125C49.6086 31.25 50.8645 29.6875 52.7484 28.75C54.6323 27.8125 56.5162 27.1875 59.028 27.1875C62.1678 27.1875 64.3656 27.8125 66.5635 29.375C68.4473 30.9375 69.7032 32.8125 70.0172 35.3125H62.7957C62.4817 34.375 62.1678 33.75 61.5398 33.4375C60.9119 32.8125 59.9699 32.8125 59.342 32.8125H59.028C57.7721 32.8125 56.5162 33.4375 55.5742 34.375C54.6323 35.3125 54.3183 36.875 54.3183 39.0625C54.3183 40.9375 54.6323 42.5 55.5742 43.4375C56.5162 44.375 57.4581 45 58.714 45H59.028C59.9699 45 60.9119 44.6875 61.8538 44.0625C62.7957 43.4375 63.1097 42.8125 63.1097 41.875H58.4V37.5H69.7033V49.375Z" fill="#222038"/>
<path d="M90.1119 28.75C91.9957 29.6875 93.2516 31.25 94.1936 32.8125C95.1355 34.375 95.4495 36.25 95.4495 38.4375C95.4495 40.3125 95.1355 42.1875 94.1936 44.0625C93.2516 45.9375 91.9957 47.1875 90.1119 48.125C88.228 49.0625 86.3441 49.6875 83.8323 49.6875C81.3205 49.6875 79.1226 49.0625 77.5527 48.125C75.6689 47.1875 74.4129 45.625 73.471 44.0625C72.5291 42.1875 72.2151 40.625 72.2151 38.4375C72.2151 36.5625 72.5291 34.6875 73.471 32.8125C74.4129 31.25 75.6689 29.6875 77.5527 28.75C79.4366 27.8125 81.3205 27.1875 83.8323 27.1875C86.3441 27.1875 88.228 27.8125 90.1119 28.75ZM86.9721 43.125C87.6 42.1875 88.228 40.625 88.228 38.75C88.228 36.875 87.914 35.3125 86.9721 34.375C86.3441 33.4375 85.0882 32.8125 83.8323 32.8125C82.2624 32.8125 81.3205 33.4375 80.6925 34.375C80.0645 35.3125 79.4366 36.875 79.4366 38.75C79.4366 40.625 79.7506 42.1875 80.6925 43.125C81.3205 44.0625 82.5764 44.6875 83.8323 44.6875C85.0882 44.6875 86.3441 44.0625 86.9721 43.125Z" fill="#222038"/>
<path d="M115.858 28.75C117.742 29.6875 118.998 31.25 119.94 32.8125C120.882 34.375 121.196 36.25 121.196 38.4375C121.196 40.3125 120.882 42.1875 119.94 44.0625C118.998 45.9375 117.742 47.1875 115.858 48.125C113.974 49.0625 112.09 49.6875 109.579 49.6875C107.067 49.6875 104.869 49.0625 103.299 48.125C101.415 47.1875 100.159 45.625 99.2172 44.0625C98.2753 42.1875 97.9613 40.625 97.9613 38.4375C97.9613 36.5625 98.2753 34.6875 99.2172 32.8125C100.159 31.25 101.415 29.6875 103.299 28.75C105.183 27.8125 107.067 27.1875 109.579 27.1875C111.776 27.1875 113.974 27.8125 115.858 28.75ZM112.718 43.125C113.346 42.1875 113.974 40.625 113.974 38.75C113.974 36.875 113.66 35.3125 112.718 34.375C112.09 33.4375 110.834 32.8125 109.579 32.8125C108.009 32.8125 107.067 33.4375 106.439 34.375C105.811 35.3125 105.183 36.875 105.183 38.75C105.183 40.625 105.497 42.1875 106.439 43.125C107.067 44.0625 108.323 44.6875 109.579 44.6875C110.834 44.6875 111.776 44.0625 112.718 43.125Z" fill="#222038"/>
<path d="M134.069 27.8125C136.581 27.8125 138.464 28.125 140.348 29.0625C142.232 30 143.488 31.25 144.43 32.8125C145.372 34.375 146 36.25 146 38.4375C146 40.625 145.372 42.5 144.43 44.375C143.488 45.9375 141.918 47.1875 140.348 48.125C138.464 49.0625 136.581 49.375 134.069 49.375H124.021V27.5H134.069V27.8125ZM137.523 42.5C138.464 41.5625 138.778 40 138.778 38.4375C138.778 36.5625 138.464 35.3125 137.523 34.375C136.895 33.4375 135.639 33.125 133.755 33.125H130.929V44.0625H133.755C135.325 44.0625 136.581 43.4375 137.523 42.5Z" fill="#222038"/>
</svg>
